<mxfile host="Chrome" modified="2023-11-19T07:43:57.857Z" agent="Mozilla/5.0 (X11; CrOS x86_64 14541.0.0) AppleWebKit/537.36 (KHTML, like Gecko) Chrome/118.0.0.0 Safari/537.36" version="21.2.7" etag="xuAzGIXKilxCMaqmfxw6" type="device">
  <diagram id="_eOWxY5i22MSWqThgLqa" name="Page-1">
    <mxGraphModel dx="708" dy="415" grid="1" gridSize="10" guides="1" tooltips="1" connect="1" arrows="1" fold="1" page="1" pageScale="1" pageWidth="827" pageHeight="1169" math="0" shadow="0">
      <root>
        <mxCell id="0" />
        <mxCell id="1" parent="0" />
        <mxCell id="Bgjwh2_KuYC20jLrc3x3-25" value="" style="endArrow=none;dashed=1;html=1;dashPattern=1 1;strokeWidth=2;rounded=0;strokeColor=#b8b8b8;" edge="1" parent="1">
          <mxGeometry width="50" height="50" relative="1" as="geometry">
            <mxPoint x="499.57" y="370" as="sourcePoint" />
            <mxPoint x="499.57" y="60" as="targetPoint" />
          </mxGeometry>
        </mxCell>
        <mxCell id="Bgjwh2_KuYC20jLrc3x3-24" value="" style="endArrow=none;dashed=1;html=1;dashPattern=1 1;strokeWidth=2;rounded=0;strokeColor=#b8b8b8;" edge="1" parent="1">
          <mxGeometry width="50" height="50" relative="1" as="geometry">
            <mxPoint x="379.57" y="370" as="sourcePoint" />
            <mxPoint x="379.57" y="60" as="targetPoint" />
          </mxGeometry>
        </mxCell>
        <mxCell id="Bgjwh2_KuYC20jLrc3x3-23" value="" style="endArrow=none;dashed=1;html=1;dashPattern=1 1;strokeWidth=2;rounded=0;strokeColor=#b8b8b8;" edge="1" parent="1">
          <mxGeometry width="50" height="50" relative="1" as="geometry">
            <mxPoint x="259.57" y="370" as="sourcePoint" />
            <mxPoint x="259.57" y="60" as="targetPoint" />
          </mxGeometry>
        </mxCell>
        <mxCell id="Bgjwh2_KuYC20jLrc3x3-22" value="" style="endArrow=none;dashed=1;html=1;dashPattern=1 1;strokeWidth=2;rounded=0;strokeColor=#b8b8b8;" edge="1" parent="1">
          <mxGeometry width="50" height="50" relative="1" as="geometry">
            <mxPoint x="139.57" y="370" as="sourcePoint" />
            <mxPoint x="139.57" y="60" as="targetPoint" />
          </mxGeometry>
        </mxCell>
        <mxCell id="Bgjwh2_KuYC20jLrc3x3-1" value="State 0" style="rounded=1;whiteSpace=wrap;html=1;fillColor=#ffe6cc;strokeColor=#d79b00;opacity=70;" vertex="1" parent="1">
          <mxGeometry x="80" y="160" width="480" height="40" as="geometry" />
        </mxCell>
        <mxCell id="Bgjwh2_KuYC20jLrc3x3-2" value="x&lt;sub&gt;0&lt;/sub&gt;" style="ellipse;whiteSpace=wrap;html=1;aspect=fixed;fillColor=#d5e8d4;strokeColor=#82b366;" vertex="1" parent="1">
          <mxGeometry x="120" y="80" width="40" height="40" as="geometry" />
        </mxCell>
        <mxCell id="Bgjwh2_KuYC20jLrc3x3-3" value="x&lt;sub&gt;1&lt;/sub&gt;" style="ellipse;whiteSpace=wrap;html=1;aspect=fixed;fillColor=#d5e8d4;strokeColor=#82b366;" vertex="1" parent="1">
          <mxGeometry x="240" y="80" width="40" height="40" as="geometry" />
        </mxCell>
        <mxCell id="Bgjwh2_KuYC20jLrc3x3-4" value="x&lt;sub&gt;2&lt;/sub&gt;" style="ellipse;whiteSpace=wrap;html=1;aspect=fixed;fillColor=#d5e8d4;strokeColor=#82b366;" vertex="1" parent="1">
          <mxGeometry x="360" y="80" width="40" height="40" as="geometry" />
        </mxCell>
        <mxCell id="Bgjwh2_KuYC20jLrc3x3-5" value="x&lt;sub&gt;3&lt;/sub&gt;" style="ellipse;whiteSpace=wrap;html=1;aspect=fixed;fillColor=#d5e8d4;strokeColor=#82b366;" vertex="1" parent="1">
          <mxGeometry x="480" y="80" width="40" height="40" as="geometry" />
        </mxCell>
        <mxCell id="Bgjwh2_KuYC20jLrc3x3-6" value="Observations" style="text;html=1;strokeColor=none;fillColor=none;align=left;verticalAlign=middle;whiteSpace=wrap;rounded=0;" vertex="1" parent="1">
          <mxGeometry x="600" y="85" width="80" height="30" as="geometry" />
        </mxCell>
        <mxCell id="Bgjwh2_KuYC20jLrc3x3-7" value="State 0" style="rounded=1;whiteSpace=wrap;html=1;fillColor=#ffe6cc;strokeColor=#d79b00;opacity=70;" vertex="1" parent="1">
          <mxGeometry x="80" y="210" width="110" height="40" as="geometry" />
        </mxCell>
        <mxCell id="Bgjwh2_KuYC20jLrc3x3-8" value="State 1" style="rounded=1;whiteSpace=wrap;html=1;fillColor=#e1d5e7;strokeColor=#9673a6;opacity=70;" vertex="1" parent="1">
          <mxGeometry x="210" y="210" width="350" height="40" as="geometry" />
        </mxCell>
        <mxCell id="Bgjwh2_KuYC20jLrc3x3-9" value="State 0" style="rounded=1;whiteSpace=wrap;html=1;fillColor=#ffe6cc;strokeColor=#d79b00;opacity=70;" vertex="1" parent="1">
          <mxGeometry x="80" y="260" width="230" height="40" as="geometry" />
        </mxCell>
        <mxCell id="Bgjwh2_KuYC20jLrc3x3-10" value="State 1" style="rounded=1;whiteSpace=wrap;html=1;fillColor=#e1d5e7;strokeColor=#9673a6;opacity=70;" vertex="1" parent="1">
          <mxGeometry x="330" y="260" width="230" height="40" as="geometry" />
        </mxCell>
        <mxCell id="Bgjwh2_KuYC20jLrc3x3-11" value="State 0" style="rounded=1;whiteSpace=wrap;html=1;fillColor=#ffe6cc;strokeColor=#d79b00;opacity=70;" vertex="1" parent="1">
          <mxGeometry x="80" y="310" width="350" height="40" as="geometry" />
        </mxCell>
        <mxCell id="Bgjwh2_KuYC20jLrc3x3-12" value="State 1" style="rounded=1;whiteSpace=wrap;html=1;fillColor=#e1d5e7;strokeColor=#9673a6;opacity=70;" vertex="1" parent="1">
          <mxGeometry x="450" y="310" width="110" height="40" as="geometry" />
        </mxCell>
        <mxCell id="Bgjwh2_KuYC20jLrc3x3-13" value="" style="endArrow=classic;html=1;rounded=0;strokeWidth=3;strokeColor=#656161;" edge="1" parent="1">
          <mxGeometry width="50" height="50" relative="1" as="geometry">
            <mxPoint x="240" y="50" as="sourcePoint" />
            <mxPoint x="400" y="50" as="targetPoint" />
          </mxGeometry>
        </mxCell>
        <mxCell id="Bgjwh2_KuYC20jLrc3x3-14" value="Time" style="text;html=1;strokeColor=none;fillColor=none;align=center;verticalAlign=middle;whiteSpace=wrap;rounded=0;" vertex="1" parent="1">
          <mxGeometry x="270" y="30" width="100" height="20" as="geometry" />
        </mxCell>
        <mxCell id="Bgjwh2_KuYC20jLrc3x3-16" value="Model 0" style="text;html=1;strokeColor=none;fillColor=none;align=left;verticalAlign=middle;whiteSpace=wrap;rounded=0;" vertex="1" parent="1">
          <mxGeometry x="600" y="160" width="100" height="30" as="geometry" />
        </mxCell>
        <mxCell id="Bgjwh2_KuYC20jLrc3x3-18" value="Model 1" style="text;html=1;strokeColor=none;fillColor=none;align=left;verticalAlign=middle;whiteSpace=wrap;rounded=0;" vertex="1" parent="1">
          <mxGeometry x="600" y="215" width="100" height="30" as="geometry" />
        </mxCell>
        <mxCell id="Bgjwh2_KuYC20jLrc3x3-19" value="Model 2" style="text;html=1;strokeColor=none;fillColor=none;align=left;verticalAlign=middle;whiteSpace=wrap;rounded=0;" vertex="1" parent="1">
          <mxGeometry x="600" y="265" width="100" height="30" as="geometry" />
        </mxCell>
        <mxCell id="Bgjwh2_KuYC20jLrc3x3-20" value="Model 3" style="text;html=1;strokeColor=none;fillColor=none;align=left;verticalAlign=middle;whiteSpace=wrap;rounded=0;" vertex="1" parent="1">
          <mxGeometry x="600" y="315" width="100" height="30" as="geometry" />
        </mxCell>
      </root>
    </mxGraphModel>
  </diagram>
</mxfile>
